<?xml version="1.0" encoding="UTF-8"?>
<svg width="1738px" height="342px" viewBox="0 0 1738 342" version="1.1" xmlns="http://www.w3.org/2000/svg" xmlns:xlink="http://www.w3.org/1999/xlink">
    <title>GrainQL Logomark Alt</title>
    <defs>
        <path d="M137.05889,220.151551 L234.610932,289.643008 C245.856519,297.653832 248.478813,313.264237 240.467989,324.509824 C238.8549,326.774276 236.875384,328.753793 234.610932,330.366881 L137.05889,399.858338 C128.377678,406.042422 116.730343,406.042422 108.049131,399.858338 L10.4970892,330.366881 C-0.748497872,322.356057 -3.37079153,306.745652 4.64003238,295.500065 C6.25312072,293.235613 8.2326373,291.256096 10.4970892,289.643008 L108.049131,220.151551 C116.730343,213.967467 128.377678,213.967467 137.05889,220.151551 Z M137.05889,4.6380634 L234.610932,74.1295201 C245.856519,82.1403441 248.478813,97.7507495 240.467989,108.996337 C238.8549,111.260788 236.875384,113.240305 234.610932,114.853393 L137.05889,184.34485 C128.377678,190.528935 116.730343,190.528935 108.049131,184.34485 L10.4970892,114.853393 C-0.748497872,106.842569 -3.37079153,91.232164 4.64003238,79.986577 C6.25312072,77.7221251 8.2326373,75.7426085 10.4970892,74.1295201 L108.049131,4.6380634 C116.730343,-1.54602113 128.377678,-1.54602113 137.05889,4.6380634 Z" id="path-1"></path>
    </defs>
    <g id="Brand" stroke="none" stroke-width="1" fill="none" fill-rule="evenodd">
        <g id="GrainQL-Logomark---Alt---Dark" transform="translate(-58, -338)">
            <g id="GrainQL-Logomark-Alt" transform="translate(106, 255)">
                <g id="Grain" transform="translate(520, 0)" fill="#FFFFFF" fill-rule="nonzero">
                    <path d="M161.135156,404.5 C131.622656,404.5 105.769922,398.125 83.5769531,385.375 C61.3839844,372.625 44.1714844,354.625 31.9394531,331.375 C19.7074219,308.125 13.5914063,280.75 13.5914063,249.25 C13.5914063,217.75 20.1855469,190.375 33.3738281,167.125 C46.5621094,143.875 65.1351563,125.875 89.0929687,113.125 C113.050781,100.375 141.035156,94 173.046094,94 C201.738281,94 226.972266,98.5703125 248.748047,107.710938 C270.523828,116.851562 287.517187,129.85 299.728125,146.70625 C311.939063,163.5625 318.044531,183.599219 318.044531,206.816406 L318.044531,210.655469 L264.621094,210.655469 L264.621094,206.816406 C264.621094,185.221094 256.996875,168.782031 241.748437,157.499219 C226.5,146.216406 203.23125,140.575 171.942188,140.575 C147.740625,140.575 127.726172,144.436328 111.898828,152.158984 C96.0714844,159.881641 84.2660156,171.707031 76.4824219,187.635156 C68.6988281,203.563281 64.8070313,224.101562 64.8070313,249.25 C64.8070313,274.098438 68.625,294.561719 76.2609375,310.639844 C83.896875,326.717969 95.4820313,338.618359 111.016406,346.341016 C126.550781,354.063672 146.123437,357.925 169.734375,357.925 C193.729688,357.925 213.100781,355.569531 227.847656,350.858594 C242.594531,346.147656 253.29375,338.569141 259.945312,328.123047 C266.596875,317.676953 269.922656,303.927344 269.922656,286.874219 L269.922656,277.107813 L318.2625,278.521094 L318.2625,285.510156 L278.191406,334.728906 L271.040625,334.728906 C266.8125,349.489844 259.8,362.082813 250.003125,372.507812 C240.20625,382.932812 227.876953,390.871094 213.015234,396.322656 C198.153516,401.774219 180.860156,404.5 161.135156,404.5 Z M318.2625,400 L273.9375,400 L273.9375,323.689844 L269.922656,317.221094 L269.922656,251.739062 L318.2625,251.739062 L318.2625,400 Z M318.2625,283.175781 L158.196094,283.175781 L158.196094,246.317969 L318.2625,246.317969 L318.2625,283.175781 Z" id="Shape"></path>
                    <path d="M407.642871,400 L359.295996,400 L359.295996,176.413281 L403.845996,176.413281 L403.845996,239.603125 L407.642871,241.853125 L407.642871,400 Z M407.642871,274.646875 L396.709277,274.646875 L396.709277,236.502344 L406.742871,236.502344 C408.997559,224.361719 413.277246,213.414063 419.581934,203.659375 C425.886621,193.904687 434.36748,186.175 445.024512,180.470313 C455.681543,174.765625 468.662402,171.913281 483.96709,171.913281 C501.071777,171.913281 514.953809,175.517969 525.613184,182.727344 C536.272559,189.936719 544.118262,199.50625 549.150293,211.435938 C554.182324,223.365625 556.69834,236.44375 556.69834,250.670313 L556.69834,279.835938 L508.358496,279.835938 L508.358496,259.944531 C508.358496,243.917969 504.766699,232.117188 497.583105,224.542188 C490.399512,216.967187 478.426465,213.179687 461.663965,213.179687 C442.618652,213.179687 428.853809,218.420313 420.369434,228.901563 C411.885059,239.382812 407.642871,254.63125 407.642871,274.646875 Z" id="Shape"></path>
                    <path d="M798.4306,400 L753.8806,400 L753.8806,342.484375 L750.990756,341.10625 L750.990756,264.458594 C750.990756,246.022656 746.535287,233.0875 737.62435,225.653125 C728.713412,218.21875 713.547006,214.501562 692.125131,214.501562 C671.439194,214.501562 655.985678,218.102734 645.764584,225.305078 C635.543491,232.507422 630.432944,244.349219 630.432944,260.830469 L630.432944,262.8625 L582.086069,262.8625 L582.086069,261.048437 C582.086069,244.004688 586.609506,228.784375 595.656381,215.3875 C604.703256,201.990625 617.7181,191.395703 634.700912,183.602734 C651.683725,175.809766 671.929037,171.913281 695.43685,171.913281 C719.239975,171.913281 738.731772,175.884766 753.912241,183.827734 C769.092709,191.770703 780.307553,202.629297 787.556772,216.403516 C794.805991,230.177734 798.4306,246.032031 798.4306,263.966406 L798.4306,400 Z M652.637631,404.5 C629.739194,404.5 611.429819,399.332031 597.709506,388.996094 C583.989194,378.660156 577.129037,364.351562 577.129037,346.070313 C577.129037,334.351562 580.061069,324.521875 585.925131,316.58125 C591.789194,308.640625 600.121225,302.389844 610.921225,297.828906 C621.721225,293.267969 634.525131,290.164844 649.332944,288.519531 L755.490756,277.227344 L755.490756,306.132812 L663.114194,316.517969 C650.490756,317.736719 641.098178,320.243359 634.936459,324.037891 C628.774741,327.832422 625.693881,334.142969 625.693881,342.969531 C625.693881,351.767969 628.910678,358.3375 635.344272,362.678125 C641.777866,367.01875 651.887631,369.189062 665.673569,369.189062 C682.815756,369.189062 697.725522,367.024609 710.402866,362.695703 C723.080209,358.366797 733.014194,351.581641 740.204819,342.340234 C747.395444,333.098828 750.990756,321.064844 750.990756,306.238281 L757.290756,307.194531 L757.290756,344.038281 L750.990756,344.038281 C745.107944,362.999219 733.663412,377.816406 716.657162,388.489844 C699.650912,399.163281 678.311069,404.5 652.637631,404.5 Z" id="Shape"></path>
                    <path d="M890.563486,400 L842.216611,400 L842.216611,176.413281 L890.563486,176.413281 L890.563486,400 Z M890.563486,150.207812 L842.216611,150.207812 L842.216611,98.5 L890.563486,98.5 L890.563486,150.207812 Z" id="Shape"></path>
                    <path d="M1169.09475,400 L1120.74788,400 L1120.74788,278.359375 C1120.74788,257.410937 1115.69124,241.678516 1105.57796,231.162109 C1095.46468,220.645703 1078.7385,215.3875 1055.39944,215.3875 C1030.98225,215.3875 1013.0221,221.642969 1001.51897,234.153906 C990.015848,246.664844 984.264285,265.089062 984.264285,289.426562 L975.714285,289.651563 L973.330692,245.720312 L983.364285,245.720312 C985.77366,233.120313 990.662723,221.194141 998.031473,209.941797 C1005.40022,198.689453 1015.61311,189.538281 1028.67014,182.488281 C1041.72718,175.438281 1057.76897,171.913281 1076.79554,171.913281 C1097.50022,171.913281 1114.68108,176.122656 1128.33811,184.541406 C1141.99514,192.960156 1152.20218,204.23125 1158.95921,218.354688 C1165.71624,232.478125 1169.09475,248.171875 1169.09475,265.435938 L1169.09475,400 Z M984.264285,400 L935.91741,400 L935.91741,176.413281 L980.46741,176.413281 L980.46741,246.620313 L984.264285,248.870313 L984.264285,400 Z" id="Shape"></path>
                </g>
                <g id="Combined-Shape" transform="translate(202.2482, 253.5788) rotate(90) translate(-202.2482, -253.5788)translate(79.6942, 51.3306)">
                    <path stroke="#FFFFFF" stroke-width="48" d="M122.554011,191.513488 C132.514999,191.513488 142.475987,194.543689 150.983575,200.604092 L248.535617,270.095549 C259.556292,277.946156 266.351553,289.520559 268.428994,301.887478 C270.506435,314.254397 267.866055,327.413834 260.015448,338.434509 C256.853795,342.872835 252.973942,346.752687 248.535617,349.91434 L150.983575,419.405797 C142.475987,425.4662 132.514999,428.496401 122.554011,428.496401 C112.593022,428.496401 102.632034,425.4662 94.1244462,419.405797 L-3.42759541,349.91434 C-14.4482707,342.063733 -21.2435323,330.48933 -23.3209731,318.122411 C-25.398414,305.755492 -22.7580342,292.596055 -14.9074268,281.57538 C-11.7457736,277.137054 -7.86592111,273.257202 -3.42759541,270.095549 L94.1244462,200.604092 C102.632034,194.543689 112.593022,191.513488 122.554011,191.513488 Z M122.554011,-24 C132.514999,-24 142.475987,-20.9697986 150.983575,-14.9093957 L248.535617,54.582061 C259.556292,62.4326684 266.351553,74.0070708 268.428994,86.3739902 C270.506435,98.7409095 267.866055,111.900346 260.015448,122.921021 C256.853795,127.359347 252.973942,131.239199 248.535617,134.400852 L150.983575,203.892309 C142.475987,209.952712 132.514999,212.982913 122.554011,212.982913 C112.593022,212.982913 102.632034,209.952712 94.1244462,203.892309 L-3.42759541,134.400852 C-14.4482707,126.550245 -21.2435323,114.975843 -23.3209731,102.608923 C-25.398414,90.242004 -22.7580342,77.0825677 -14.9074268,66.0618924 C-11.7457736,61.6235667 -7.86592111,57.7437142 -3.42759541,54.582061 L94.1244462,-14.9093957 C102.632034,-20.9697986 112.593022,-24 122.554011,-24 Z" fill="#FFFFFF" fill-rule="evenodd"></path>
                    <path stroke="#000000" stroke-width="24" d="M122.554011,203.513488 C130.075573,203.513488 137.597136,205.801599 144.021233,210.377822 L241.573274,279.869278 C249.895009,285.797288 255.026125,294.537143 256.594804,303.875429 C258.163484,313.213715 256.169728,323.150432 250.241718,331.472167 C247.854348,334.823555 244.924663,337.75324 241.573274,340.140611 L144.021233,409.632067 C137.597136,414.20829 130.075573,416.496401 122.554011,416.496401 C115.032448,416.496401 107.510885,414.20829 101.086788,409.632067 L3.53474689,340.140611 C-4.78698754,334.212601 -9.9181034,325.472746 -11.4867832,316.13446 C-13.0554631,306.796174 -11.0617069,296.859457 -5.13369719,288.537722 C-2.74632645,285.186334 0.183358094,282.256649 3.53474689,279.869278 L101.086788,210.377822 C107.510885,205.801599 115.032448,203.513488 122.554011,203.513488 Z M122.554011,-12 C130.075573,-12 137.597136,-9.71188872 144.021233,-5.13566617 L241.573274,64.3557906 C249.895009,70.2838003 255.026125,79.0236551 256.594804,88.3619412 C258.163484,97.7002272 256.169728,107.636944 250.241718,115.958679 C247.854348,119.310068 244.924663,122.239752 241.573274,124.627123 L144.021233,194.11858 C137.597136,198.694802 130.075573,200.982913 122.554011,200.982913 C115.032448,200.982913 107.510885,198.694802 101.086788,194.11858 L3.53474689,124.627123 C-4.78698754,118.699113 -9.9181034,109.959258 -11.4867832,100.620972 C-13.0554631,91.2826863 -11.0617069,81.3459691 -5.13369719,73.0242347 C-2.74632645,69.6728459 0.183358094,66.7431613 3.53474689,64.3557906 L101.086788,-5.13566617 C107.510885,-9.71188872 115.032448,-12 122.554011,-12 Z"></path>
                </g>
            </g>
        </g>
    </g>
</svg>